<svg width="68" height="64" viewBox="0 0 68 64" fill="none" xmlns="http://www.w3.org/2000/svg">
<path d="M25.75 24.75H36.75V27.5H25.75V24.75ZM25.75 17.875H42.25V20.625H25.75V17.875ZM25.75 31.625H32.625V34.375H25.75V31.625Z" fill="#008F51"/>
<path d="M46.375 6.875H42.25V5.5C42.25 4.77065 41.9603 4.07118 41.4445 3.55546C40.9288 3.03973 40.2293 2.75 39.5 2.75H28.5C27.7707 2.75 27.0712 3.03973 26.5555 3.55546C26.0397 4.07118 25.75 4.77065 25.75 5.5V6.875H21.625C20.8957 6.875 20.1962 7.16473 19.6805 7.68046C19.1647 8.19618 18.875 8.89565 18.875 9.625V38.5C18.875 39.2293 19.1647 39.9288 19.6805 40.4445C20.1962 40.9603 20.8957 41.25 21.625 41.25H46.375C47.1043 41.25 47.8038 40.9603 48.3195 40.4445C48.8353 39.9288 49.125 39.2293 49.125 38.5V9.625C49.125 8.89565 48.8353 8.19618 48.3195 7.68046C47.8038 7.16473 47.1043 6.875 46.375 6.875ZM28.5 5.5H39.5V11H28.5V5.5ZM46.375 38.5H21.625V9.625H25.75V13.75H42.25V9.625H46.375V38.5Z" fill="#008F51"/>
<path d="M12.3169 61L11.3501 58.5078H8.20264L7.24121 61H6.31738L9.38965 53.1152H10.2114L13.2622 61H12.3169ZM11.0762 57.6968L10.1577 55.2207C10.1362 55.1562 10.1004 55.0506 10.0503 54.9038C10.0037 54.757 9.9554 54.6048 9.90527 54.4473C9.85514 54.2897 9.81396 54.1626 9.78174 54.0659C9.74593 54.2127 9.70654 54.3595 9.66357 54.5063C9.62419 54.6496 9.5848 54.7839 9.54541 54.9092C9.50602 55.0309 9.47201 55.1348 9.44336 55.2207L8.50879 57.6968H11.0762ZM15.1152 61H14.2183V52.6426H15.1152V61ZM17.8975 61H17.0005V52.6426H17.8975V61ZM24.896 53.1475C25.5405 53.1475 26.0723 53.228 26.4912 53.3892C26.9137 53.5467 27.2288 53.7884 27.4365 54.1143C27.6442 54.4401 27.748 54.8555 27.748 55.3604C27.748 55.7757 27.6729 56.123 27.5225 56.4023C27.3721 56.6781 27.1751 56.9019 26.9316 57.0737C26.6882 57.2456 26.4285 57.3781 26.1528 57.4712L28.3066 61H27.2432L25.3203 57.7236H23.6875V61H22.7744V53.1475H24.896ZM24.8423 53.937H23.6875V56.9502H24.9336C25.5745 56.9502 26.0454 56.8195 26.3462 56.5581C26.6506 56.2967 26.8027 55.9118 26.8027 55.4033C26.8027 54.8698 26.6416 54.492 26.3193 54.27C26.0007 54.048 25.5083 53.937 24.8423 53.937ZM31.6958 55.0059C32.1971 55.0059 32.6268 55.1169 32.9849 55.3389C33.3429 55.5609 33.6169 55.8724 33.8066 56.2734C33.9964 56.6709 34.0913 57.1364 34.0913 57.6699V58.2231H30.0254C30.0361 58.9142 30.208 59.4406 30.541 59.8022C30.874 60.1639 31.3431 60.3447 31.9482 60.3447C32.3206 60.3447 32.6501 60.3107 32.9365 60.2427C33.223 60.1746 33.5202 60.0744 33.8281 59.9419V60.7261C33.5309 60.8586 33.2355 60.9552 32.9419 61.0161C32.6519 61.077 32.3081 61.1074 31.9106 61.1074C31.3449 61.1074 30.8507 60.9928 30.4282 60.7637C30.0093 60.5309 29.6834 60.1908 29.4507 59.7432C29.2179 59.2956 29.1016 58.7477 29.1016 58.0996C29.1016 57.4658 29.2072 56.918 29.4185 56.4561C29.6333 55.9906 29.9341 55.6325 30.3208 55.3818C30.7111 55.1312 31.1694 55.0059 31.6958 55.0059ZM31.6851 55.7363C31.2088 55.7363 30.8293 55.8921 30.5464 56.2036C30.2635 56.5151 30.0952 56.9502 30.0415 57.5088H33.1567C33.1532 57.1579 33.0977 56.8499 32.9902 56.585C32.8864 56.3164 32.7271 56.1087 32.5122 55.9619C32.2974 55.8115 32.0216 55.7363 31.6851 55.7363ZM38.3721 55.0059C39.1061 55.0059 39.6916 55.2583 40.1284 55.7632C40.5653 56.2681 40.7837 57.0272 40.7837 58.0405C40.7837 58.7101 40.6834 59.2723 40.4829 59.7271C40.2824 60.1818 39.9995 60.5256 39.6343 60.7583C39.2726 60.991 38.8447 61.1074 38.3506 61.1074C38.0391 61.1074 37.7651 61.0662 37.5288 60.9839C37.2925 60.9015 37.0902 60.7905 36.9219 60.6509C36.7536 60.5112 36.6139 60.359 36.5029 60.1943H36.4385C36.4492 60.334 36.4618 60.5023 36.4761 60.6992C36.494 60.8962 36.5029 61.068 36.5029 61.2148V63.6318H35.606V55.1133H36.3418L36.46 55.9834H36.5029C36.6175 55.8044 36.7572 55.6414 36.9219 55.4946C37.0866 55.3442 37.2871 55.2261 37.5234 55.1401C37.7633 55.0506 38.0462 55.0059 38.3721 55.0059ZM38.2163 55.7578C37.8081 55.7578 37.4787 55.8366 37.228 55.9941C36.981 56.1517 36.8001 56.388 36.6855 56.7031C36.571 57.0146 36.5101 57.4067 36.5029 57.8794V58.0513C36.5029 58.549 36.5566 58.9697 36.6641 59.3135C36.7751 59.6572 36.9559 59.9186 37.2065 60.0977C37.4608 60.2767 37.8009 60.3662 38.2271 60.3662C38.5923 60.3662 38.8966 60.2677 39.1401 60.0708C39.3836 59.8739 39.5645 59.5999 39.6826 59.249C39.8044 58.8945 39.8652 58.4881 39.8652 58.0298C39.8652 57.3351 39.7292 56.7837 39.457 56.3755C39.1885 55.9637 38.7749 55.7578 38.2163 55.7578ZM47.417 58.0459C47.417 58.5293 47.3543 58.9608 47.229 59.3403C47.1037 59.7199 46.9229 60.0404 46.6865 60.3018C46.4502 60.5632 46.1637 60.7637 45.8271 60.9033C45.4941 61.0394 45.1164 61.1074 44.6938 61.1074C44.3 61.1074 43.9383 61.0394 43.6089 60.9033C43.283 60.7637 43.0002 60.5632 42.7603 60.3018C42.5239 60.0404 42.3395 59.7199 42.207 59.3403C42.0781 58.9608 42.0137 58.5293 42.0137 58.0459C42.0137 57.4014 42.1229 56.8535 42.3413 56.4023C42.5597 55.9476 42.8713 55.6021 43.2759 55.3657C43.6841 55.1258 44.1693 55.0059 44.7314 55.0059C45.2686 55.0059 45.7376 55.1258 46.1387 55.3657C46.5433 55.6056 46.8566 55.953 47.0786 56.4077C47.3042 56.8589 47.417 57.4049 47.417 58.0459ZM42.9375 58.0459C42.9375 58.5186 43.0002 58.9285 43.1255 59.2759C43.2508 59.6232 43.4442 59.8918 43.7056 60.0815C43.967 60.2713 44.3035 60.3662 44.7153 60.3662C45.1235 60.3662 45.4583 60.2713 45.7197 60.0815C45.9847 59.8918 46.1799 59.6232 46.3052 59.2759C46.4305 58.9285 46.4932 58.5186 46.4932 58.0459C46.4932 57.5768 46.4305 57.1722 46.3052 56.832C46.1799 56.4883 45.9865 56.2233 45.7251 56.0371C45.4637 55.8509 45.1253 55.7578 44.71 55.7578C44.0977 55.7578 43.6483 55.9601 43.3618 56.3647C43.0789 56.7694 42.9375 57.3298 42.9375 58.0459ZM51.6333 55.0059C51.7515 55.0059 51.875 55.013 52.0039 55.0273C52.1328 55.0381 52.2474 55.0542 52.3477 55.0757L52.2349 55.9028C52.1382 55.8778 52.0308 55.8581 51.9126 55.8438C51.7944 55.8294 51.6834 55.8223 51.5796 55.8223C51.3433 55.8223 51.1195 55.8706 50.9082 55.9673C50.7005 56.0604 50.5179 56.1965 50.3604 56.3755C50.2028 56.5509 50.0793 56.764 49.9897 57.0146C49.9002 57.2617 49.8555 57.5374 49.8555 57.8418V61H48.9585V55.1133H49.6997L49.7964 56.1982H49.834C49.9557 55.9798 50.1025 55.7811 50.2744 55.6021C50.4463 55.4194 50.645 55.2744 50.8706 55.167C51.0998 55.0596 51.354 55.0059 51.6333 55.0059ZM55.3608 60.377C55.5076 60.377 55.658 60.3644 55.812 60.3394C55.966 60.3143 56.0913 60.2839 56.188 60.248V60.9409C56.0841 60.9875 55.9391 61.0269 55.7529 61.0591C55.5703 61.0913 55.3913 61.1074 55.2158 61.1074C54.9043 61.1074 54.6214 61.0537 54.3672 60.9463C54.113 60.8353 53.9089 60.6491 53.7549 60.3877C53.6045 60.1263 53.5293 59.7646 53.5293 59.3027V55.8115H52.6914V55.3765L53.5347 55.0273L53.8892 53.749H54.4263V55.1133H56.1504V55.8115H54.4263V59.2759C54.4263 59.6447 54.5104 59.9204 54.6787 60.103C54.8506 60.2856 55.078 60.377 55.3608 60.377ZM61.1885 59.3887C61.1885 59.7646 61.0936 60.0815 60.9038 60.3394C60.7176 60.5936 60.4491 60.7852 60.0981 60.9141C59.7508 61.043 59.3354 61.1074 58.8521 61.1074C58.4403 61.1074 58.084 61.0752 57.7832 61.0107C57.4824 60.9463 57.2192 60.855 56.9937 60.7368V59.915C57.2336 60.0332 57.52 60.1406 57.853 60.2373C58.186 60.334 58.5262 60.3823 58.8735 60.3823C59.382 60.3823 59.7508 60.3 59.98 60.1353C60.2091 59.9705 60.3237 59.7467 60.3237 59.4639C60.3237 59.3027 60.2772 59.1613 60.1841 59.0396C60.0946 58.9142 59.9424 58.7943 59.7275 58.6797C59.5127 58.5615 59.2155 58.4326 58.8359 58.293C58.46 58.1497 58.1341 58.0083 57.8584 57.8687C57.5863 57.7254 57.375 57.5518 57.2246 57.3477C57.0778 57.1436 57.0044 56.8786 57.0044 56.5527C57.0044 56.055 57.2049 55.6737 57.606 55.4087C58.0106 55.1401 58.5405 55.0059 59.1958 55.0059C59.5503 55.0059 59.8815 55.0417 60.1895 55.1133C60.501 55.1813 60.791 55.2744 61.0596 55.3926L60.7588 56.1069C60.5153 56.0031 60.2557 55.9154 59.98 55.8438C59.7043 55.7721 59.4232 55.7363 59.1367 55.7363C58.7249 55.7363 58.408 55.8044 58.186 55.9404C57.9676 56.0765 57.8584 56.2627 57.8584 56.499C57.8584 56.6816 57.9085 56.832 58.0088 56.9502C58.1126 57.0684 58.2773 57.1794 58.5029 57.2832C58.7285 57.387 59.0257 57.5088 59.3945 57.6484C59.7633 57.7845 60.082 57.9259 60.3506 58.0728C60.6191 58.216 60.825 58.3914 60.9683 58.5991C61.1151 58.8032 61.1885 59.0664 61.1885 59.3887Z" fill="#414141"/>
</svg>
