<svg width="44" height="44" viewBox="0 0 44 44" fill="none" xmlns="http://www.w3.org/2000/svg">
<path d="M29.3334 11.5133C29.3332 12.6165 28.8969 13.6748 28.1197 14.4577C26.3304 16.2617 24.5942 18.1427 22.737 19.8807C22.5297 20.0696 22.2577 20.1716 21.9773 20.1658C21.6969 20.16 21.4294 20.0468 21.23 19.8495L15.8804 14.4595C15.1027 13.6761 14.6663 12.6171 14.6663 11.5133C14.6663 10.4095 15.1027 9.35051 15.8804 8.56716C16.2684 8.17626 16.7299 7.86602 17.2384 7.6543C17.7469 7.44259 18.2922 7.33359 18.843 7.33359C19.3938 7.33359 19.9392 7.44259 20.4476 7.6543C20.9561 7.86602 21.4177 8.17626 21.8057 8.56716L22 8.76333L22.1944 8.56716C22.7768 7.97842 23.5213 7.57631 24.333 7.41202C25.1447 7.24774 25.9869 7.32872 26.7525 7.64465C27.518 7.96058 28.1722 8.49717 28.6318 9.1861C29.0915 9.87504 29.3356 10.6852 29.3334 11.5133Z" stroke="#008F51" stroke-width="2.75" stroke-linejoin="round"/>
<path d="M33 36.6667L40.0107 29.656C40.217 29.4499 40.3331 29.1703 40.3333 28.8787V19.25C40.3333 18.5207 40.0436 17.8212 39.5279 17.3055C39.0122 16.7897 38.3127 16.5 37.5833 16.5C36.854 16.5 36.1545 16.7897 35.6388 17.3055C35.1231 17.8212 34.8333 18.5207 34.8333 19.25V27.5" stroke="#008F51" stroke-width="2.75" stroke-linecap="round" stroke-linejoin="round"/>
<path d="M33 29.3333L34.573 27.7603C34.6557 27.6778 34.7212 27.5798 34.7659 27.4719C34.8105 27.364 34.8335 27.2483 34.8334 27.1315C34.8331 26.9666 34.787 26.8051 34.7003 26.6649C34.6135 26.5247 34.4895 26.4114 34.342 26.3377L33.5299 25.9325C32.8418 25.5885 32.0629 25.4696 31.3036 25.5926C30.5442 25.7157 29.8427 26.0744 29.2985 26.6182L27.6577 28.259C26.97 28.9465 26.5836 29.879 26.5834 30.8513V36.6667M11 36.6667L3.98935 29.656C3.783 29.4499 3.66694 29.1703 3.66669 28.8787V19.25C3.66669 18.5207 3.95642 17.8212 4.47214 17.3055C4.98787 16.7897 5.68734 16.5 6.41669 16.5C7.14603 16.5 7.84551 16.7897 8.36123 17.3055C8.87696 17.8212 9.16669 18.5207 9.16669 19.25V27.5" stroke="#008F51" stroke-width="2.75" stroke-linecap="round" stroke-linejoin="round"/>
<path d="M11 29.3333L9.42702 27.7603C9.34446 27.6777 9.27898 27.5797 9.23431 27.4718C9.18964 27.3639 9.16666 27.2483 9.16669 27.1315C9.16669 26.796 9.35735 26.4898 9.65802 26.3377L10.4702 25.9325C11.1583 25.5884 11.9371 25.4695 12.6965 25.5926C13.4559 25.7157 14.1573 26.0744 14.7015 26.6181L16.3424 28.259C17.03 28.9465 17.4165 29.8789 17.4167 30.8513V36.6666" stroke="#008F51" stroke-width="2.75" stroke-linecap="round" stroke-linejoin="round"/>
</svg>
