<svg width="68" height="79" viewBox="0 0 68 79" fill="none" xmlns="http://www.w3.org/2000/svg">
<path d="M41.3333 3.66666C36.2733 3.66666 32.1666 7.77332 32.1666 12.8333C32.1666 17.8933 36.2733 22 41.3333 22C46.3933 22 50.5 17.8933 50.5 12.8333C50.5 7.77332 46.3933 3.66666 41.3333 3.66666ZM41.3333 18.3333C38.29 18.3333 35.8333 15.8767 35.8333 12.8333C35.8333 9.78999 38.29 7.33332 41.3333 7.33332C44.3766 7.33332 46.8333 9.78999 46.8333 12.8333C46.8333 15.8767 44.3766 18.3333 41.3333 18.3333ZM46.8333 29.3333H43.1666C43.1666 27.1333 41.7916 25.1533 39.7383 24.3833L28.445 20.1667H13.8333V40.3333H24.8333V37.6933L37.6666 41.25L52.3333 36.6667V34.8333C52.3333 31.79 49.8766 29.3333 46.8333 29.3333ZM21.1666 36.6667H17.5V23.8333H21.1666V36.6667ZM37.6116 37.4183L24.8333 33.9167V23.8333H27.785L38.455 27.8117C39.0783 28.05 39.5 28.655 39.5 29.3333C39.5 29.3333 35.8333 29.2417 35.2833 29.0583L30.92 27.61L29.765 31.0933L34.1283 32.5417C35.0633 32.8533 36.035 33 37.025 33H46.8333C47.5483 33 48.19 33.44 48.4833 34.045L37.6116 37.4183Z" fill="#008F51"/>
<path d="M17.022 56.9985C17.022 57.883 16.8608 58.6224 16.5386 59.2168C16.2163 59.8076 15.749 60.2534 15.1367 60.5542C14.528 60.8514 13.7886 61 12.9185 61H10.7861V53.1475H13.1548C13.9533 53.1475 14.6408 53.2943 15.2173 53.5879C15.7938 53.8779 16.2378 54.3094 16.5493 54.8823C16.8644 55.4517 17.022 56.1571 17.022 56.9985ZM16.0605 57.0308C16.0605 56.3254 15.9424 55.7435 15.7061 55.2852C15.4733 54.8268 15.1296 54.4867 14.6748 54.2646C14.2236 54.0391 13.6704 53.9263 13.0151 53.9263H11.6992V60.2158H12.811C13.8924 60.2158 14.7035 59.9491 15.2441 59.4155C15.7884 58.882 16.0605 58.0871 16.0605 57.0308ZM23.709 58.0459C23.709 58.5293 23.6463 58.9608 23.521 59.3403C23.3957 59.7199 23.2148 60.0404 22.9785 60.3018C22.7422 60.5632 22.4557 60.7637 22.1191 60.9033C21.7861 61.0394 21.4084 61.1074 20.9858 61.1074C20.592 61.1074 20.2303 61.0394 19.9009 60.9033C19.575 60.7637 19.2922 60.5632 19.0522 60.3018C18.8159 60.0404 18.6315 59.7199 18.499 59.3403C18.3701 58.9608 18.3057 58.5293 18.3057 58.0459C18.3057 57.4014 18.4149 56.8535 18.6333 56.4023C18.8517 55.9476 19.1632 55.6021 19.5679 55.3657C19.9761 55.1258 20.4613 55.0059 21.0234 55.0059C21.5605 55.0059 22.0296 55.1258 22.4307 55.3657C22.8353 55.6056 23.1486 55.953 23.3706 56.4077C23.5962 56.8589 23.709 57.4049 23.709 58.0459ZM19.2295 58.0459C19.2295 58.5186 19.2922 58.9285 19.4175 59.2759C19.5428 59.6232 19.7362 59.8918 19.9976 60.0815C20.259 60.2713 20.5955 60.3662 21.0073 60.3662C21.4155 60.3662 21.7503 60.2713 22.0117 60.0815C22.2767 59.8918 22.4718 59.6232 22.5972 59.2759C22.7225 58.9285 22.7852 58.5186 22.7852 58.0459C22.7852 57.5768 22.7225 57.1722 22.5972 56.832C22.4718 56.4883 22.2785 56.2233 22.0171 56.0371C21.7557 55.8509 21.4173 55.7578 21.002 55.7578C20.3896 55.7578 19.9403 55.9601 19.6538 56.3647C19.3709 56.7694 19.2295 57.3298 19.2295 58.0459ZM28.0381 55.0059C28.7363 55.0059 29.2645 55.1777 29.6226 55.5215C29.9806 55.8617 30.1597 56.4095 30.1597 57.165V61H29.2788V57.2241C29.2788 56.7336 29.166 56.3665 28.9404 56.123C28.7184 55.8796 28.3765 55.7578 27.9146 55.7578C27.2629 55.7578 26.8045 55.9422 26.5396 56.311C26.2746 56.6799 26.1421 57.2152 26.1421 57.917V61H25.2505V55.1133H25.9702L26.1045 55.9619H26.1528C26.2782 55.7542 26.4375 55.5806 26.6309 55.4409C26.8242 55.2977 27.0409 55.1903 27.2808 55.1187C27.5207 55.0435 27.7731 55.0059 28.0381 55.0059ZM37.0723 58.0459C37.0723 58.5293 37.0096 58.9608 36.8843 59.3403C36.759 59.7199 36.5781 60.0404 36.3418 60.3018C36.1055 60.5632 35.819 60.7637 35.4824 60.9033C35.1494 61.0394 34.7716 61.1074 34.3491 61.1074C33.9552 61.1074 33.5936 61.0394 33.2642 60.9033C32.9383 60.7637 32.6554 60.5632 32.4155 60.3018C32.1792 60.0404 31.9948 59.7199 31.8623 59.3403C31.7334 58.9608 31.6689 58.5293 31.6689 58.0459C31.6689 57.4014 31.7782 56.8535 31.9966 56.4023C32.215 55.9476 32.5265 55.6021 32.9312 55.3657C33.3394 55.1258 33.8245 55.0059 34.3867 55.0059C34.9238 55.0059 35.3929 55.1258 35.7939 55.3657C36.1986 55.6056 36.5119 55.953 36.7339 56.4077C36.9595 56.8589 37.0723 57.4049 37.0723 58.0459ZM32.5928 58.0459C32.5928 58.5186 32.6554 58.9285 32.7808 59.2759C32.9061 59.6232 33.0994 59.8918 33.3608 60.0815C33.6222 60.2713 33.9588 60.3662 34.3706 60.3662C34.7788 60.3662 35.1136 60.2713 35.375 60.0815C35.64 59.8918 35.8351 59.6232 35.9604 59.2759C36.0858 58.9285 36.1484 58.5186 36.1484 58.0459C36.1484 57.5768 36.0858 57.1722 35.9604 56.832C35.8351 56.4883 35.6418 56.2233 35.3804 56.0371C35.119 55.8509 34.7806 55.7578 34.3652 55.7578C33.7529 55.7578 33.3035 55.9601 33.0171 56.3647C32.7342 56.7694 32.5928 57.3298 32.5928 58.0459ZM41.2886 55.0059C41.4067 55.0059 41.5303 55.013 41.6592 55.0273C41.7881 55.0381 41.9027 55.0542 42.0029 55.0757L41.8901 55.9028C41.7935 55.8778 41.686 55.8581 41.5679 55.8438C41.4497 55.8294 41.3387 55.8223 41.2349 55.8223C40.9985 55.8223 40.7747 55.8706 40.5635 55.9673C40.3558 56.0604 40.1732 56.1965 40.0156 56.3755C39.8581 56.5509 39.7345 56.764 39.645 57.0146C39.5555 57.2617 39.5107 57.5374 39.5107 57.8418V61H38.6138V55.1133H39.355L39.4517 56.1982H39.4893C39.611 55.9798 39.7578 55.7811 39.9297 55.6021C40.1016 55.4194 40.3003 55.2744 40.5259 55.167C40.755 55.0596 41.0093 55.0059 41.2886 55.0059ZM46.9229 59.3887C46.9229 59.7646 46.828 60.0815 46.6382 60.3394C46.452 60.5936 46.1834 60.7852 45.8325 60.9141C45.4852 61.043 45.0698 61.1074 44.5864 61.1074C44.1746 61.1074 43.8184 61.0752 43.5176 61.0107C43.2168 60.9463 42.9536 60.855 42.728 60.7368V59.915C42.9679 60.0332 43.2544 60.1406 43.5874 60.2373C43.9204 60.334 44.2606 60.3823 44.6079 60.3823C45.1164 60.3823 45.4852 60.3 45.7144 60.1353C45.9435 59.9705 46.0581 59.7467 46.0581 59.4639C46.0581 59.3027 46.0116 59.1613 45.9185 59.0396C45.8289 58.9142 45.6768 58.7943 45.4619 58.6797C45.2471 58.5615 44.9499 58.4326 44.5703 58.293C44.1943 58.1497 43.8685 58.0083 43.5928 57.8687C43.3206 57.7254 43.1094 57.5518 42.959 57.3477C42.8122 57.1436 42.7388 56.8786 42.7388 56.5527C42.7388 56.055 42.9393 55.6737 43.3403 55.4087C43.745 55.1401 44.2749 55.0059 44.9302 55.0059C45.2847 55.0059 45.6159 55.0417 45.9238 55.1133C46.2354 55.1813 46.5254 55.2744 46.7939 55.3926L46.4932 56.1069C46.2497 56.0031 45.9901 55.9154 45.7144 55.8438C45.4386 55.7721 45.1576 55.7363 44.8711 55.7363C44.4593 55.7363 44.1424 55.8044 43.9204 55.9404C43.702 56.0765 43.5928 56.2627 43.5928 56.499C43.5928 56.6816 43.6429 56.832 43.7432 56.9502C43.847 57.0684 44.0117 57.1794 44.2373 57.2832C44.4629 57.387 44.7601 57.5088 45.1289 57.6484C45.4977 57.7845 45.8164 57.9259 46.085 58.0728C46.3535 58.216 46.5594 58.3914 46.7026 58.5991C46.8494 58.8032 46.9229 59.0664 46.9229 59.3887ZM53.6206 53.0239C54.0073 53.0239 54.3403 53.092 54.6196 53.228C54.9025 53.3605 55.1191 53.5521 55.2695 53.8027C55.4235 54.0534 55.5005 54.356 55.5005 54.7104C55.5005 55.1759 55.3483 55.5698 55.0439 55.8921C54.7432 56.2144 54.36 56.508 53.8945 56.7729L56.0752 58.8892C56.2721 58.66 56.4333 58.395 56.5586 58.0942C56.6839 57.7899 56.7896 57.4604 56.8755 57.106H57.7778C57.6632 57.5786 57.5146 58.0137 57.332 58.4111C57.153 58.8086 56.9274 59.1577 56.6553 59.4585L58.229 61H57.0205L56.0483 60.0493C55.8192 60.2606 55.5721 60.4468 55.3071 60.6079C55.0457 60.7655 54.7539 60.889 54.4316 60.9785C54.113 61.0645 53.7477 61.1074 53.3359 61.1074C52.8346 61.1074 52.3996 61.0251 52.0308 60.8604C51.6619 60.6956 51.3755 60.4539 51.1714 60.1353C50.9709 59.8166 50.8706 59.4263 50.8706 58.9644C50.8706 58.5848 50.9404 58.259 51.0801 57.9868C51.2197 57.7147 51.4185 57.473 51.6763 57.2617C51.9341 57.0505 52.242 56.8446 52.6001 56.644C52.4318 56.4578 52.2725 56.2699 52.1221 56.0801C51.9717 55.8867 51.8499 55.6808 51.7568 55.4624C51.6637 55.2404 51.6172 54.9969 51.6172 54.7319C51.6172 54.3739 51.6978 54.0677 51.8589 53.8135C52.0236 53.5592 52.2546 53.3641 52.5518 53.228C52.8525 53.092 53.2088 53.0239 53.6206 53.0239ZM53.1372 57.208C52.8579 57.3691 52.618 57.5285 52.4175 57.686C52.2205 57.8436 52.0684 58.0208 51.9609 58.2178C51.8571 58.4147 51.8052 58.6528 51.8052 58.9321C51.8052 59.3511 51.9466 59.6877 52.2295 59.9419C52.5124 60.1925 52.8901 60.3179 53.3628 60.3179C53.8498 60.3179 54.2633 60.2373 54.6035 60.0762C54.9473 59.915 55.2391 59.7199 55.479 59.4907L53.1372 57.208ZM53.5884 53.7598C53.2625 53.7598 52.9976 53.8457 52.7935 54.0176C52.5929 54.1859 52.4927 54.4222 52.4927 54.7266C52.4927 54.9987 52.5661 55.2493 52.7129 55.4785C52.8597 55.7077 53.0692 55.9619 53.3413 56.2412C53.7889 55.9941 54.113 55.756 54.3135 55.5269C54.5176 55.2941 54.6196 55.022 54.6196 54.7104C54.6196 54.4276 54.5247 54.1984 54.335 54.0229C54.1488 53.8475 53.8999 53.7598 53.5884 53.7598ZM14.4116 76V68.1475H15.3247V75.1836H18.8105V76H14.4116ZM22.291 70.0059C22.7923 70.0059 23.222 70.1169 23.5801 70.3389C23.9382 70.5609 24.2121 70.8724 24.4019 71.2734C24.5916 71.6709 24.6865 72.1364 24.6865 72.6699V73.2231H20.6206C20.6313 73.9142 20.8032 74.4406 21.1362 74.8022C21.4692 75.1639 21.9383 75.3447 22.5435 75.3447C22.9159 75.3447 23.2453 75.3107 23.5317 75.2427C23.8182 75.1746 24.1154 75.0744 24.4233 74.9419V75.7261C24.1261 75.8586 23.8307 75.9552 23.5371 76.0161C23.2471 76.077 22.9033 76.1074 22.5059 76.1074C21.9401 76.1074 21.446 75.9928 21.0234 75.7637C20.6045 75.5309 20.2786 75.1908 20.0459 74.7432C19.8132 74.2956 19.6968 73.7477 19.6968 73.0996C19.6968 72.4658 19.8024 71.918 20.0137 71.4561C20.2285 70.9906 20.5293 70.6325 20.916 70.3818C21.3063 70.1312 21.7646 70.0059 22.291 70.0059ZM22.2803 70.7363C21.804 70.7363 21.4245 70.8921 21.1416 71.2036C20.8587 71.5151 20.6904 71.9502 20.6367 72.5088H23.752C23.7484 72.1579 23.6929 71.8499 23.5854 71.585C23.4816 71.3164 23.3223 71.1087 23.1074 70.9619C22.8926 70.8115 22.6169 70.7363 22.2803 70.7363ZM28.9888 70.0059C29.687 70.0059 30.2152 70.1777 30.5732 70.5215C30.9313 70.8617 31.1104 71.4095 31.1104 72.165V76H30.2295V72.2241C30.2295 71.7336 30.1167 71.3665 29.8911 71.123C29.6691 70.8796 29.3271 70.7578 28.8652 70.7578C28.2135 70.7578 27.7552 70.9422 27.4902 71.311C27.2253 71.6799 27.0928 72.2152 27.0928 72.917V76H26.2012V70.1133H26.9209L27.0552 70.9619H27.1035C27.2288 70.7542 27.3882 70.5806 27.5815 70.4409C27.7749 70.2977 27.9915 70.1903 28.2314 70.1187C28.4714 70.0435 28.7238 70.0059 28.9888 70.0059ZM35.042 76.1074C34.2972 76.1074 33.7064 75.8532 33.2695 75.3447C32.8363 74.8363 32.6196 74.0807 32.6196 73.0781C32.6196 72.0648 32.8416 71.3003 33.2856 70.7847C33.7297 70.2655 34.3205 70.0059 35.0581 70.0059C35.3696 70.0059 35.6418 70.047 35.8745 70.1294C36.1073 70.2118 36.3078 70.3228 36.4761 70.4624C36.6444 70.5985 36.7858 70.7542 36.9004 70.9297H36.9648C36.9505 70.8187 36.9362 70.6665 36.9219 70.4731C36.9076 70.2798 36.9004 70.1222 36.9004 70.0005V67.6426H37.792V76H37.0723L36.938 75.1621H36.9004C36.7894 75.3376 36.6479 75.4969 36.4761 75.6401C36.3078 75.7834 36.1055 75.8979 35.8691 75.9839C35.6364 76.0662 35.3607 76.1074 35.042 76.1074ZM35.1816 75.3662C35.8118 75.3662 36.2576 75.1872 36.519 74.8291C36.7804 74.471 36.9111 73.9393 36.9111 73.2339V73.0728C36.9111 72.3244 36.7858 71.7497 36.5352 71.3486C36.2881 70.9476 35.8369 70.7471 35.1816 70.7471C34.6338 70.7471 34.2238 70.9583 33.9517 71.3809C33.6795 71.7998 33.5435 72.3727 33.5435 73.0996C33.5435 73.8229 33.6777 74.3815 33.9463 74.7754C34.2184 75.1693 34.6302 75.3662 35.1816 75.3662ZM41.9492 70.0059C42.4505 70.0059 42.8802 70.1169 43.2383 70.3389C43.5964 70.5609 43.8703 70.8724 44.0601 71.2734C44.2498 71.6709 44.3447 72.1364 44.3447 72.6699V73.2231H40.2788C40.2896 73.9142 40.4614 74.4406 40.7944 74.8022C41.1274 75.1639 41.5965 75.3447 42.2017 75.3447C42.5741 75.3447 42.9035 75.3107 43.1899 75.2427C43.4764 75.1746 43.7736 75.0744 44.0815 74.9419V75.7261C43.7843 75.8586 43.4889 75.9552 43.1953 76.0161C42.9053 76.077 42.5615 76.1074 42.1641 76.1074C41.5983 76.1074 41.1042 75.9928 40.6816 75.7637C40.2627 75.5309 39.9368 75.1908 39.7041 74.7432C39.4714 74.2956 39.355 73.7477 39.355 73.0996C39.355 72.4658 39.4606 71.918 39.6719 71.4561C39.8867 70.9906 40.1875 70.6325 40.5742 70.3818C40.9645 70.1312 41.4229 70.0059 41.9492 70.0059ZM41.9385 70.7363C41.4622 70.7363 41.0827 70.8921 40.7998 71.2036C40.5169 71.5151 40.3486 71.9502 40.2949 72.5088H43.4102C43.4066 72.1579 43.3511 71.8499 43.2437 71.585C43.1398 71.3164 42.9805 71.1087 42.7656 70.9619C42.5508 70.8115 42.2751 70.7363 41.9385 70.7363ZM48.5342 70.0059C48.6523 70.0059 48.7759 70.013 48.9048 70.0273C49.0337 70.0381 49.1483 70.0542 49.2485 70.0757L49.1357 70.9028C49.0391 70.8778 48.9316 70.8581 48.8135 70.8438C48.6953 70.8294 48.5843 70.8223 48.4805 70.8223C48.2441 70.8223 48.0203 70.8706 47.8091 70.9673C47.6014 71.0604 47.4188 71.1965 47.2612 71.3755C47.1037 71.5509 46.9801 71.764 46.8906 72.0146C46.8011 72.2617 46.7563 72.5374 46.7563 72.8418V76H45.8594V70.1133H46.6006L46.6973 71.1982H46.7349C46.8566 70.9798 47.0034 70.7811 47.1753 70.6021C47.3472 70.4194 47.5459 70.2744 47.7715 70.167C48.0007 70.0596 48.2549 70.0059 48.5342 70.0059ZM54.1685 74.3887C54.1685 74.7646 54.0736 75.0815 53.8838 75.3394C53.6976 75.5936 53.429 75.7852 53.0781 75.9141C52.7308 76.043 52.3154 76.1074 51.832 76.1074C51.4202 76.1074 51.064 76.0752 50.7632 76.0107C50.4624 75.9463 50.1992 75.855 49.9736 75.7368V74.915C50.2135 75.0332 50.5 75.1406 50.833 75.2373C51.166 75.334 51.5062 75.3823 51.8535 75.3823C52.362 75.3823 52.7308 75.3 52.96 75.1353C53.1891 74.9705 53.3037 74.7467 53.3037 74.4639C53.3037 74.3027 53.2572 74.1613 53.1641 74.0396C53.0745 73.9142 52.9224 73.7943 52.7075 73.6797C52.4927 73.5615 52.1955 73.4326 51.8159 73.293C51.4399 73.1497 51.1141 73.0083 50.8384 72.8687C50.5662 72.7254 50.355 72.5518 50.2046 72.3477C50.0578 72.1436 49.9844 71.8786 49.9844 71.5527C49.9844 71.055 50.1849 70.6737 50.5859 70.4087C50.9906 70.1401 51.5205 70.0059 52.1758 70.0059C52.5303 70.0059 52.8615 70.0417 53.1694 70.1133C53.481 70.1813 53.771 70.2744 54.0396 70.3926L53.7388 71.1069C53.4953 71.0031 53.2357 70.9154 52.96 70.8438C52.6842 70.7721 52.4032 70.7363 52.1167 70.7363C51.7049 70.7363 51.388 70.8044 51.166 70.9404C50.9476 71.0765 50.8384 71.2627 50.8384 71.499C50.8384 71.6816 50.8885 71.832 50.9888 71.9502C51.0926 72.0684 51.2573 72.1794 51.4829 72.2832C51.7085 72.387 52.0057 72.5088 52.3745 72.6484C52.7433 72.7845 53.062 72.9259 53.3306 73.0728C53.5991 73.216 53.805 73.3914 53.9482 73.5991C54.0951 73.8032 54.1685 74.0664 54.1685 74.3887Z" fill="#414141"/>
</svg>
