<svg width="68" height="79" viewBox="0 0 68 79" fill="none" xmlns="http://www.w3.org/2000/svg">
<path d="M24.8334 13.75C29.896 13.75 34 11.698 34 9.16668C34 6.63537 29.896 4.58334 24.8334 4.58334C19.7707 4.58334 15.6667 6.63537 15.6667 9.16668C15.6667 11.698 19.7707 13.75 24.8334 13.75Z" stroke="#008F51" stroke-width="3.66667" stroke-linecap="round" stroke-linejoin="round"/>
<path d="M15.6667 9.16669V15.5834C15.6667 18.1143 19.7706 20.1667 24.8334 20.1667C29.8961 20.1667 34 18.1143 34 15.5834V9.16669" stroke="#008F51" stroke-width="3.66667" stroke-linecap="round" stroke-linejoin="round"/>
<path d="M15.6667 15.5833V22C15.6667 24.5309 19.7706 26.5833 24.8334 26.5833C29.8961 26.5833 34 24.5309 34 22V15.5833" stroke="#008F51" stroke-width="3.66667" stroke-linecap="round" stroke-linejoin="round"/>
<path d="M15.6667 22V28.4167C15.6667 30.9476 19.7706 33 24.8334 33C29.8961 33 34 30.9476 34 28.4167V22" stroke="#008F51" stroke-width="3.66667" stroke-linecap="round" stroke-linejoin="round"/>
<path d="M15.6667 28.4167V34.8334C15.6667 37.3643 19.7706 39.4167 24.8334 39.4167C29.8961 39.4167 34 37.3643 34 34.8334V28.4167" stroke="#008F51" stroke-width="3.66667" stroke-linecap="round" stroke-linejoin="round"/>
<path d="M43.1667 26.5834C48.2293 26.5834 52.3333 24.5313 52.3333 22C52.3333 19.4687 48.2293 17.4167 43.1667 17.4167C38.1041 17.4167 34 19.4687 34 22C34 24.5313 38.1041 26.5834 43.1667 26.5834Z" stroke="#008F51" stroke-width="3.66667" stroke-linecap="round" stroke-linejoin="round"/>
<path d="M34 22V28.4167C34 30.9476 38.1039 33 43.1667 33C48.2294 33 52.3333 30.9476 52.3333 28.4167V22" stroke="#008F51" stroke-width="3.66667" stroke-linecap="round" stroke-linejoin="round"/>
<path d="M34 28.4167V34.8334C34 37.3643 38.1039 39.4167 43.1667 39.4167C48.2294 39.4167 52.3333 37.3643 52.3333 34.8334V28.4167" stroke="#008F51" stroke-width="3.66667" stroke-linecap="round" stroke-linejoin="round"/>
<path d="M3.55664 61H2.64355V53.1475H7.01562V53.9531H3.55664V56.832H6.80615V57.6323H3.55664V61ZM13.0527 55.1133V61H12.3223L12.1934 60.1729H12.145C12.0233 60.377 11.8657 60.5488 11.6724 60.6885C11.479 60.8281 11.2606 60.932 11.0171 61C10.7772 61.0716 10.5212 61.1074 10.249 61.1074C9.78353 61.1074 9.39323 61.0322 9.07812 60.8818C8.76302 60.7314 8.5249 60.4987 8.36377 60.1836C8.20622 59.8685 8.12744 59.4639 8.12744 58.9697V55.1133H9.02979V58.9053C9.02979 59.3958 9.14079 59.7629 9.36279 60.0063C9.5848 60.2463 9.92318 60.3662 10.3779 60.3662C10.8148 60.3662 11.1621 60.2839 11.4199 60.1191C11.6813 59.9544 11.8693 59.7127 11.9839 59.394C12.0985 59.0718 12.1558 58.6779 12.1558 58.2124V55.1133H13.0527ZM17.7256 55.0059C18.4238 55.0059 18.952 55.1777 19.3101 55.5215C19.6681 55.8617 19.8472 56.4095 19.8472 57.165V61H18.9663V57.2241C18.9663 56.7336 18.8535 56.3665 18.6279 56.123C18.4059 55.8796 18.064 55.7578 17.6021 55.7578C16.9504 55.7578 16.492 55.9422 16.2271 56.311C15.9621 56.6799 15.8296 57.2152 15.8296 57.917V61H14.938V55.1133H15.6577L15.792 55.9619H15.8403C15.9657 55.7542 16.125 55.5806 16.3184 55.4409C16.5117 55.2977 16.7284 55.1903 16.9683 55.1187C17.2082 55.0435 17.4606 55.0059 17.7256 55.0059ZM23.7788 61.1074C23.034 61.1074 22.4432 60.8532 22.0063 60.3447C21.5731 59.8363 21.3564 59.0807 21.3564 58.0781C21.3564 57.0648 21.5785 56.3003 22.0225 55.7847C22.4665 55.2655 23.0573 55.0059 23.7949 55.0059C24.1064 55.0059 24.3786 55.047 24.6113 55.1294C24.8441 55.2118 25.0446 55.3228 25.2129 55.4624C25.3812 55.5985 25.5226 55.7542 25.6372 55.9297H25.7017C25.6873 55.8187 25.673 55.6665 25.6587 55.4731C25.6444 55.2798 25.6372 55.1222 25.6372 55.0005V52.6426H26.5288V61H25.8091L25.6748 60.1621H25.6372C25.5262 60.3376 25.3848 60.4969 25.2129 60.6401C25.0446 60.7834 24.8423 60.8979 24.606 60.9839C24.3732 61.0662 24.0975 61.1074 23.7788 61.1074ZM23.9185 60.3662C24.5487 60.3662 24.9945 60.1872 25.2559 59.8291C25.5173 59.471 25.6479 58.9393 25.6479 58.2339V58.0728C25.6479 57.3244 25.5226 56.7497 25.272 56.3486C25.0249 55.9476 24.5737 55.7471 23.9185 55.7471C23.3706 55.7471 22.9606 55.9583 22.6885 56.3809C22.4163 56.7998 22.2803 57.3727 22.2803 58.0996C22.2803 58.8229 22.4146 59.3815 22.6831 59.7754C22.9552 60.1693 23.367 60.3662 23.9185 60.3662ZM33.6831 53.0239C34.0698 53.0239 34.4028 53.092 34.6821 53.228C34.965 53.3605 35.1816 53.5521 35.332 53.8027C35.486 54.0534 35.563 54.356 35.563 54.7104C35.563 55.1759 35.4108 55.5698 35.1064 55.8921C34.8057 56.2144 34.4225 56.508 33.957 56.7729L36.1377 58.8892C36.3346 58.66 36.4958 58.395 36.6211 58.0942C36.7464 57.7899 36.8521 57.4604 36.938 57.106H37.8403C37.7257 57.5786 37.5771 58.0137 37.3945 58.4111C37.2155 58.8086 36.9899 59.1577 36.7178 59.4585L38.2915 61H37.083L36.1108 60.0493C35.8817 60.2606 35.6346 60.4468 35.3696 60.6079C35.1082 60.7655 34.8164 60.889 34.4941 60.9785C34.1755 61.0645 33.8102 61.1074 33.3984 61.1074C32.8971 61.1074 32.4621 61.0251 32.0933 60.8604C31.7244 60.6956 31.438 60.4539 31.2339 60.1353C31.0334 59.8166 30.9331 59.4263 30.9331 58.9644C30.9331 58.5848 31.0029 58.259 31.1426 57.9868C31.2822 57.7147 31.481 57.473 31.7388 57.2617C31.9966 57.0505 32.3045 56.8446 32.6626 56.644C32.4943 56.4578 32.335 56.2699 32.1846 56.0801C32.0342 55.8867 31.9124 55.6808 31.8193 55.4624C31.7262 55.2404 31.6797 54.9969 31.6797 54.7319C31.6797 54.3739 31.7603 54.0677 31.9214 53.8135C32.0861 53.5592 32.3171 53.3641 32.6143 53.228C32.915 53.092 33.2713 53.0239 33.6831 53.0239ZM33.1997 57.208C32.9204 57.3691 32.6805 57.5285 32.48 57.686C32.283 57.8436 32.1309 58.0208 32.0234 58.2178C31.9196 58.4147 31.8677 58.6528 31.8677 58.9321C31.8677 59.3511 32.0091 59.6877 32.292 59.9419C32.5749 60.1925 32.9526 60.3179 33.4253 60.3179C33.9123 60.3179 34.3258 60.2373 34.666 60.0762C35.0098 59.915 35.3016 59.7199 35.5415 59.4907L33.1997 57.208ZM33.6509 53.7598C33.325 53.7598 33.0601 53.8457 32.856 54.0176C32.6554 54.1859 32.5552 54.4222 32.5552 54.7266C32.5552 54.9987 32.6286 55.2493 32.7754 55.4785C32.9222 55.7077 33.1317 55.9619 33.4038 56.2412C33.8514 55.9941 34.1755 55.756 34.376 55.5269C34.5801 55.2941 34.6821 55.022 34.6821 54.7104C34.6821 54.4276 34.5872 54.1984 34.3975 54.0229C34.2113 53.8475 33.9624 53.7598 33.6509 53.7598ZM42.2822 61V53.1475H43.1953V60.1836H46.6812V61H42.2822ZM52.9707 58.0459C52.9707 58.5293 52.908 58.9608 52.7827 59.3403C52.6574 59.7199 52.4766 60.0404 52.2402 60.3018C52.0039 60.5632 51.7174 60.7637 51.3809 60.9033C51.0479 61.0394 50.6701 61.1074 50.2476 61.1074C49.8537 61.1074 49.492 61.0394 49.1626 60.9033C48.8368 60.7637 48.5539 60.5632 48.314 60.3018C48.0776 60.0404 47.8932 59.7199 47.7607 59.3403C47.6318 58.9608 47.5674 58.5293 47.5674 58.0459C47.5674 57.4014 47.6766 56.8535 47.895 56.4023C48.1134 55.9476 48.425 55.6021 48.8296 55.3657C49.2378 55.1258 49.723 55.0059 50.2852 55.0059C50.8223 55.0059 51.2913 55.1258 51.6924 55.3657C52.097 55.6056 52.4103 55.953 52.6323 56.4077C52.8579 56.8589 52.9707 57.4049 52.9707 58.0459ZM48.4912 58.0459C48.4912 58.5186 48.5539 58.9285 48.6792 59.2759C48.8045 59.6232 48.9979 59.8918 49.2593 60.0815C49.5207 60.2713 49.8573 60.3662 50.269 60.3662C50.6772 60.3662 51.012 60.2713 51.2734 60.0815C51.5384 59.8918 51.7336 59.6232 51.8589 59.2759C51.9842 58.9285 52.0469 58.5186 52.0469 58.0459C52.0469 57.5768 51.9842 57.1722 51.8589 56.832C51.7336 56.4883 51.5402 56.2233 51.2788 56.0371C51.0174 55.8509 50.679 55.7578 50.2637 55.7578C49.6514 55.7578 49.202 55.9601 48.9155 56.3647C48.6326 56.7694 48.4912 57.3298 48.4912 58.0459ZM56.7144 55.0166C57.4162 55.0166 57.9372 55.1742 58.2773 55.4893C58.6175 55.8044 58.7876 56.3075 58.7876 56.9985V61H58.1377L57.9658 60.1299H57.9229C57.7581 60.3447 57.5863 60.5256 57.4072 60.6724C57.2282 60.8156 57.0205 60.9248 56.7842 61C56.5514 61.0716 56.265 61.1074 55.9248 61.1074C55.5667 61.1074 55.248 61.0448 54.9688 60.9194C54.693 60.7941 54.4746 60.6043 54.3135 60.3501C54.1559 60.0959 54.0771 59.7736 54.0771 59.3833C54.0771 58.7961 54.3099 58.3449 54.7754 58.0298C55.2409 57.7147 55.9499 57.5428 56.9023 57.5142L57.9175 57.4712V57.1113C57.9175 56.6029 57.8083 56.2466 57.5898 56.0425C57.3714 55.8384 57.0635 55.7363 56.666 55.7363C56.3581 55.7363 56.0645 55.7811 55.7852 55.8706C55.5059 55.9601 55.2409 56.0658 54.9902 56.1875L54.7163 55.5107C54.9813 55.3747 55.2856 55.2583 55.6294 55.1616C55.9731 55.0649 56.3348 55.0166 56.7144 55.0166ZM57.9067 58.0996L57.0098 58.1372C56.2757 58.1659 55.7583 58.2858 55.4575 58.4971C55.1567 58.7083 55.0063 59.0073 55.0063 59.394C55.0063 59.7306 55.1084 59.9795 55.3125 60.1406C55.5166 60.3018 55.7869 60.3823 56.1235 60.3823C56.6463 60.3823 57.0742 60.2373 57.4072 59.9473C57.7402 59.6572 57.9067 59.2222 57.9067 58.6421V58.0996ZM63.4121 55.0059C64.1104 55.0059 64.6385 55.1777 64.9966 55.5215C65.3547 55.8617 65.5337 56.4095 65.5337 57.165V61H64.6528V57.2241C64.6528 56.7336 64.54 56.3665 64.3145 56.123C64.0924 55.8796 63.7505 55.7578 63.2886 55.7578C62.6369 55.7578 62.1785 55.9422 61.9136 56.311C61.6486 56.6799 61.5161 57.2152 61.5161 57.917V61H60.6245V55.1133H61.3442L61.4785 55.9619H61.5269C61.6522 55.7542 61.8115 55.5806 62.0049 55.4409C62.1982 55.2977 62.4149 55.1903 62.6548 55.1187C62.8947 55.0435 63.1471 55.0059 63.4121 55.0059ZM14.8682 73.9106C14.8682 74.3761 14.7518 74.7736 14.519 75.103C14.2899 75.4289 13.9676 75.6777 13.5522 75.8496C13.1369 76.0215 12.6481 76.1074 12.0859 76.1074C11.7887 76.1074 11.5076 76.0931 11.2427 76.0645C10.9777 76.0358 10.7342 75.9946 10.5122 75.9409C10.2902 75.8872 10.0951 75.821 9.92676 75.7422V74.8667C10.1953 74.9777 10.5229 75.0815 10.9097 75.1782C11.2964 75.2713 11.701 75.3179 12.1235 75.3179C12.5174 75.3179 12.8504 75.266 13.1226 75.1621C13.3947 75.0547 13.6006 74.9025 13.7402 74.7056C13.8835 74.505 13.9551 74.2651 13.9551 73.9858C13.9551 73.7173 13.896 73.4935 13.7778 73.3145C13.6597 73.1318 13.4627 72.9671 13.187 72.8203C12.9149 72.6699 12.5425 72.5106 12.0698 72.3423C11.7368 72.2241 11.4432 72.0952 11.189 71.9556C10.9347 71.8123 10.7217 71.6512 10.5498 71.4722C10.3779 71.2931 10.2472 71.0854 10.1577 70.8491C10.0718 70.6128 10.0288 70.3424 10.0288 70.0381C10.0288 69.6191 10.1344 69.2611 10.3457 68.9639C10.5605 68.6631 10.856 68.4339 11.2319 68.2764C11.6115 68.1152 12.0465 68.0347 12.5371 68.0347C12.9561 68.0347 13.3428 68.0741 13.6973 68.1528C14.0553 68.2316 14.383 68.3372 14.6802 68.4697L14.3955 69.2539C14.1126 69.1357 13.8118 69.0373 13.4932 68.9585C13.1781 68.8797 12.8522 68.8403 12.5156 68.8403C12.179 68.8403 11.8944 68.8905 11.6616 68.9907C11.4325 69.0874 11.257 69.2253 11.1353 69.4043C11.0135 69.5833 10.9526 69.7964 10.9526 70.0435C10.9526 70.3192 11.0099 70.5483 11.1245 70.731C11.2427 70.9136 11.4289 71.0765 11.6831 71.2197C11.9409 71.3594 12.2811 71.5062 12.7036 71.6602C13.1655 71.8285 13.5576 72.0075 13.8799 72.1973C14.2021 72.3835 14.4474 72.6126 14.6157 72.8848C14.784 73.1533 14.8682 73.4953 14.8682 73.9106ZM21.2007 70.1133V76H20.4702L20.3413 75.1729H20.293C20.1712 75.377 20.0137 75.5488 19.8203 75.6885C19.627 75.8281 19.4085 75.932 19.165 76C18.9251 76.0716 18.6691 76.1074 18.397 76.1074C17.9315 76.1074 17.5412 76.0322 17.2261 75.8818C16.911 75.7314 16.6729 75.4987 16.5117 75.1836C16.3542 74.8685 16.2754 74.4639 16.2754 73.9697V70.1133H17.1777V73.9053C17.1777 74.3958 17.2887 74.7629 17.5107 75.0063C17.7327 75.2463 18.0711 75.3662 18.5259 75.3662C18.9627 75.3662 19.3101 75.2839 19.5679 75.1191C19.8293 74.9544 20.0173 74.7127 20.1318 74.394C20.2464 74.0718 20.3037 73.6779 20.3037 73.2124V70.1133H21.2007ZM29.4775 70.0059C30.1257 70.0059 30.6144 70.1759 30.9438 70.5161C31.2733 70.8527 31.438 71.3952 31.438 72.1436V76H30.5571V72.1865C30.5571 71.7103 30.4533 71.354 30.2456 71.1177C30.0415 70.8778 29.7371 70.7578 29.3325 70.7578C28.7632 70.7578 28.3496 70.9225 28.0918 71.252C27.834 71.5814 27.7051 72.0666 27.7051 72.7075V76H26.8188V72.1865C26.8188 71.8678 26.7723 71.6029 26.6792 71.3916C26.5897 71.1803 26.4536 71.0228 26.271 70.9189C26.092 70.8115 25.8646 70.7578 25.5889 70.7578C25.1986 70.7578 24.8853 70.8384 24.6489 70.9995C24.4126 71.1606 24.2407 71.4006 24.1333 71.7192C24.0295 72.0343 23.9775 72.4229 23.9775 72.8848V76H23.0859V70.1133H23.8057L23.9399 70.9458H23.9883C24.1064 70.7417 24.255 70.5698 24.4341 70.4302C24.6131 70.2905 24.8136 70.1849 25.0356 70.1133C25.2576 70.0417 25.494 70.0059 25.7446 70.0059C26.1922 70.0059 26.5664 70.09 26.8672 70.2583C27.1715 70.423 27.3918 70.6755 27.5278 71.0156H27.5762C27.7695 70.6755 28.0345 70.423 28.3711 70.2583C28.7077 70.09 29.0765 70.0059 29.4775 70.0059ZM39.6611 70.0059C40.3092 70.0059 40.798 70.1759 41.1274 70.5161C41.4569 70.8527 41.6216 71.3952 41.6216 72.1436V76H40.7407V72.1865C40.7407 71.7103 40.6369 71.354 40.4292 71.1177C40.2251 70.8778 39.9207 70.7578 39.5161 70.7578C38.9468 70.7578 38.5332 70.9225 38.2754 71.252C38.0176 71.5814 37.8887 72.0666 37.8887 72.7075V76H37.0024V72.1865C37.0024 71.8678 36.9559 71.6029 36.8628 71.3916C36.7733 71.1803 36.6372 71.0228 36.4546 70.9189C36.2756 70.8115 36.0482 70.7578 35.7725 70.7578C35.3822 70.7578 35.0688 70.8384 34.8325 70.9995C34.5962 71.1606 34.4243 71.4006 34.3169 71.7192C34.2131 72.0343 34.1611 72.4229 34.1611 72.8848V76H33.2695V70.1133H33.9893L34.1235 70.9458H34.1719C34.29 70.7417 34.4386 70.5698 34.6177 70.4302C34.7967 70.2905 34.9972 70.1849 35.2192 70.1133C35.4412 70.0417 35.6776 70.0059 35.9282 70.0059C36.3758 70.0059 36.75 70.09 37.0508 70.2583C37.3551 70.423 37.5754 70.6755 37.7114 71.0156H37.7598C37.9531 70.6755 38.2181 70.423 38.5547 70.2583C38.8913 70.09 39.2601 70.0059 39.6611 70.0059ZM45.6553 70.0166C46.3571 70.0166 46.8781 70.1742 47.2183 70.4893C47.5584 70.8044 47.7285 71.3075 47.7285 71.9985V76H47.0786L46.9067 75.1299H46.8638C46.6991 75.3447 46.5272 75.5256 46.3481 75.6724C46.1691 75.8156 45.9614 75.9248 45.7251 76C45.4924 76.0716 45.2059 76.1074 44.8657 76.1074C44.5076 76.1074 44.189 76.0448 43.9097 75.9194C43.634 75.7941 43.4155 75.6043 43.2544 75.3501C43.0968 75.0959 43.0181 74.7736 43.0181 74.3833C43.0181 73.7961 43.2508 73.3449 43.7163 73.0298C44.1818 72.7147 44.8908 72.5428 45.8433 72.5142L46.8584 72.4712V72.1113C46.8584 71.6029 46.7492 71.2466 46.5308 71.0425C46.3123 70.8384 46.0044 70.7363 45.6069 70.7363C45.299 70.7363 45.0054 70.7811 44.7261 70.8706C44.4468 70.9601 44.1818 71.0658 43.9312 71.1875L43.6572 70.5107C43.9222 70.3747 44.2266 70.2583 44.5703 70.1616C44.9141 70.0649 45.2757 70.0166 45.6553 70.0166ZM46.8477 73.0996L45.9507 73.1372C45.2166 73.1659 44.6992 73.2858 44.3984 73.4971C44.0977 73.7083 43.9473 74.0073 43.9473 74.394C43.9473 74.7306 44.0493 74.9795 44.2534 75.1406C44.4575 75.3018 44.7279 75.3823 45.0645 75.3823C45.5872 75.3823 46.0151 75.2373 46.3481 74.9473C46.6812 74.6572 46.8477 74.2222 46.8477 73.6421V73.0996ZM52.2402 70.0059C52.3584 70.0059 52.4819 70.013 52.6108 70.0273C52.7397 70.0381 52.8543 70.0542 52.9546 70.0757L52.8418 70.9028C52.7451 70.8778 52.6377 70.8581 52.5195 70.8438C52.4014 70.8294 52.2904 70.8223 52.1865 70.8223C51.9502 70.8223 51.7264 70.8706 51.5151 70.9673C51.3075 71.0604 51.1248 71.1965 50.9673 71.3755C50.8097 71.5509 50.6862 71.764 50.5967 72.0146C50.5072 72.2617 50.4624 72.5374 50.4624 72.8418V76H49.5654V70.1133H50.3066L50.4033 71.1982H50.4409C50.5627 70.9798 50.7095 70.7811 50.8813 70.6021C51.0532 70.4194 51.252 70.2744 51.4775 70.167C51.7067 70.0596 51.9609 70.0059 52.2402 70.0059ZM53.1372 70.1133H54.0933L55.3931 73.5293C55.4683 73.7298 55.5381 73.9232 55.6025 74.1094C55.667 74.292 55.7243 74.4674 55.7744 74.6357C55.8245 74.804 55.8639 74.967 55.8926 75.1245H55.9302C55.9803 74.9455 56.0519 74.7109 56.145 74.4209C56.2381 74.1273 56.3384 73.8283 56.4458 73.5239L57.6758 70.1133H58.6372L56.0752 76.8647C55.9391 77.2264 55.7798 77.5415 55.5972 77.8101C55.4181 78.0786 55.1997 78.2845 54.9419 78.4277C54.6841 78.5745 54.3726 78.6479 54.0073 78.6479C53.839 78.6479 53.6904 78.6372 53.5615 78.6157C53.4326 78.5978 53.3216 78.5763 53.2285 78.5513V77.8369C53.3073 77.8548 53.4022 77.8709 53.5132 77.8853C53.6278 77.8996 53.7459 77.9067 53.8677 77.9067C54.0897 77.9067 54.2812 77.8638 54.4424 77.7778C54.6071 77.6955 54.7485 77.5737 54.8667 77.4126C54.9849 77.2515 55.0869 77.0599 55.1729 76.8379L55.4951 76.0107L53.1372 70.1133Z" fill="#414141"/>
</svg>
